<svg xmlns="http://www.w3.org/2000/svg" width="29" height="29" fill="none"><path fill="#1572B6" d="M5.883 24.3L3.918 2.25H25.52l-1.968 22.047-8.846 2.453-8.823-2.45z"/><path fill="#33A9DC" d="M14.719 24.876l7.149-1.982 1.681-18.84h-8.83v20.822z"/><path fill="#fff" d="M14.719 12.042h3.579l.246-2.769H14.72V6.568h6.78l-.065.726-.664 7.453H14.72v-2.705z"/><path fill="#EBEBEB" d="M14.735 19.066l-.012.003-3.012-.813-.192-2.157H8.804l.379 4.246 5.54 1.538.012-.003v-2.814z"/><path fill="#fff" d="M18.067 14.632l-.325 3.622-3.016.814v2.814l5.544-1.537.04-.456.47-5.257h-2.713z"/><path fill="#EBEBEB" d="M14.728 6.568v2.705H8.195l-.054-.608-.123-1.371-.065-.726h6.775zm-.009 5.474v2.705h-2.975l-.054-.608-.122-1.372-.065-.725h3.216z"/></svg>