<svg width="29" height="29" fill="none" xmlns="http://www.w3.org/2000/svg">
  <g clip-path="url(#cib:flask__clip0)">
    <path d="M9.086 24.6c-1.066-.844-2.206-1.646-2.98-2.78-1.636-1.997-2.899-4.308-3.76-6.74-.52-1.578-.697-3.273-1.367-4.795-.702-1.098.118-2.306 1.326-2.657.538-.105 1.486-.61.342-.245-1.025.747-1.12-.684-.072-.775.715-.095.98-.683.734-1.207-.766-.502 1.868-1.053.542-1.805-1.38-1.49 1.932-1.778 1.117-.087-.196 1.304 2.315-.237 1.731 1.267.593.72 2.215.164 2.174 1.176.866.06 1.162.784 1.969.838.843.383 2.36.68 2.647 1.622-.834.661-2.761-1.358-2.852.465.25 2.693.187 5.469 1.171 8.034.47 1.554 1.6 2.78 2.621 3.988.976 1.189 2.297 2.018 3.646 2.725 1.185.556 2.462.925 3.75 1.158.52-.4 1.445-1.887 2.26-1.258.037.701-1.617 1.471-.077 1.395.902-.274 1.53.697 2.278-.178.683.811 2.853-.52 2.365 1.143-.66.424-1.626.17-2.288.752-1.09-.542-1.96.488-3.167.36-1.343.23-2.703.343-4.066.337-2.228-.178-4.507-.25-6.63-1.026-1.195-.35-2.361-1.03-3.414-1.709v.001zm1.882.815c1.167.501 2.311 1.034 3.591 1.198 2.029.279 4.125.716 6.162.32-.92-.42-1.878.164-2.794-.301-1.102.237-2.283-.06-3.404-.205-1.272-.565-2.648-.957-3.842-1.696-1.486-.542.77.698 1.176.803.93.528-1.026-.274-1.299-.493-.78-.438-.88-.346-.078.095.16.096.32.196.487.279h.001zm-2.22-1.573c1.131.42-.004-.793-.524-.724-.227-.397-.875-.652-.419-.861-.825.282-.86-1.085-1.248-.894-.871-.273-.337-1.244-1.372-1.84-.096-.63-1.03-1.177-1.331-2.129-.132-.483-1.053-1.882-.488-.583.483 1.253 1.336 2.324 2.042 3.395.551 1.016 1.199 2.082 2.201 2.716.337.323.66.82 1.14.92zM5.49 20.265c.037-.169.205.37 0 0zm4.612 4.079c.25-.11-.36-.137 0 0zm.615.227c-.064-.31-.282.169 0 0zm.77.32c.365-.351-.565-.22 0 0zm1.318.734c.223-.328-.716-.124 0 0zm-2.53-1.764c.566-.37-.738-.005 0 0zm.574.287c-.014-.196-.204.086 0 0zm2.88 1.8c.466.29 2.708.637 1.305.118-.233.05-2.603-.67-1.304-.118zm-4.57-3.564c-.046-.196-.72-.22 0 0zm1.34.78c.35-.242-.725-.188 0 0zm1.13.692c.501-.187-.816-.191 0 0zm-3.017-2.07c.543.42 2.192.056.834-.245-.62-.332-2.014-.556-1.067.196l.233.05zm3.778 2.312c.228-.388-.947-.223 0 0zm-1.149-.916c1.331.378-1.116-.839-.328-.137l.178.078.15.059zm2.306 1.33c1.257.014-1.14-.173 0 0zm-5.418-3.454c-.05-.233-.31.023 0 0zm7.547 4.648c.031-.424-.41.32 0 0zm-5.4-3.331c-.079-.223-.393-.009 0 0zm-2.029-1.463c.72-.041-.989-.32 0 0zm-2.406-1.554c-.087-.347-.784-.62 0 0zm6.312 4.01c-.132-.155-.064.032 0 0zm3.924 2.406c-.01-.227-.21.087 0 0zm-4.27-2.766c.068-.3-.62-.09 0 0zM8.88 21.15c.533-.055-.861-.36 0 0zm4.949 3.076c.834-.332-.821-.164 0 0zm-2.575-1.745c.966.123-1.149-.656-.214-.068l.214.068zm3.354 2.064c.902-.543.607 1.263 1.531.15.912-.665-.788.826.337.119.811-.543 2.015.26 2.771.52.547-.028 1.08.474 1.637.168 1.08-.291-2.106-.428-1.272-.943-.984.287-1.713-.342-2.196-.976-1.108-.255-2.383-.82-2.935-1.8-.227-.364.324.056-.196-.546-.665-.593-.998-1.267-1.444-1.988-.533-.282-.597-1.12-.652-.027.004-.693-.648-1.157-.803-.961-.004-.665.694-.333.205-.825-.105-.693-.451-1.413-.555-2.192-.16-.374-.023-1.176-.552-.328-.191.897-.063-1.103.238-.442.391-.675-.141-.597-.165-.502.255-.57.165-1.376-.068-1.07.136-.603.219-2.22-.205-1.933.255-.629.483-2.885-.62-2.024-.451.005-1.225.165-1.59.347 1.149.633-.118.227-.584.128-.06.583-.524.332-1.102.337.925.113-.452.943-.985.624-.687.329.597 1.15.014 1.404.073.383-1.052-.137-.966.747-.67-.283-.09 1.053.242.602 1.139.306.802 1.007.83 1.678-.183.387-.912-.917-.16-.857-.592-.962-.656-.347-1.153.1-.114.032 1.262.638.4.94.757.113.78.779.93 1.198.457.479.366-.524.912.05-.346-.51-1.827-1.436-.637-1.14-.005-.51-.215-.924.15-.911.365-.656-.378 1.618.438.784.227-.1.282-.656.693.05.588.583.21 1.003-.62.469.146.506 1.112.688.93 1.477.192.697.46.437.698.4.182.675.287.178.296-.145.844.181.642.678.907 1.03.578.26-.83-1.778.169-.616 1.043.948.392 1.34-.552 1.19.597-.046.789.806 1.531.774.68.323 1.14 1.563-.031 1.048-.406-.365-1.841-.82-.665-.123 1.085.501 1.942.802 2.99 1.43.743.533 1.07 1.15 1.354 1.267-.63.301-1.897-.241-.958-.406-.583-.105-1.244-.4-.683.328.479.401 1.69.356 1.91.401-.188.406-.502.438.008.47-.57.305.182.35.233.523l-.005.002zm-1.157-3.277c-.347-.365-.438-1.04-.064-.451.191.078.615 1.107.064.451zm3.778 2.398c.214-.01.004.164 0 0zm-4.325-3.286c-.014-.543.123.423 0 0zm-.378-.501c-.433-.839.551.237 0 0zm-4.548-3.145c.255-.068.123.437 0 0zm3.623 1.964c.155-.588.182.497 0 0zM9.04 16.92c-.178-.324.378.305 0 0zm2.197.702c-.41-.92.291-.502.091.155l-.091-.155zM7.45 15.097c-.182-.301-.487-1.19-.388-1.459.087.438.935 1.896.415.602-.574-1.085.688.35.82.625.06.268-.354-.073-.077.555-.51-.72-.301.397-.77-.323zm-1.172-.807c.05-.702.269.483 0 0zm.529.183c.25-.533.423.738 0 0zm-1.267-.98c-.438-.433-.752-.834.018-.269.301.009-.656-.906.073-.291.77.14.378 1.262-.091.56zm.666-.019c.255-.25.132.246 0 0zm.41.133c-.383-.72.465.3 0 0zm-.816-.78c-1.267-1.124 1.595.593.205.21l-.205-.21zm3.632 2.11c-.551-.328-.146-2.315.041-.957.533-.173-.031.702.365.693-.06.551-.237.752-.406.264zm1.34.793c.056-.597.114.41 0 0zm-.232-.232c.06-.255.004.301 0 0zm-4.49-3.04c-.815-1.125 2.366 1.135.52.283-.191-.05-.423-.068-.52-.282zm2.585 1.372c-.078-.948.173.155 0 0zm1.964 1.258c.15-.538.009.355 0 0zM6.173 12.03c.483-.105 2.006.848.607.274-.155-.174-.483-.096-.607-.274zm4.152 2.07c.055-.967.292-.58.005.136l-.005-.137zm-3.791-2.407c.196-.287-.524-1.308.105-.365.269.214.784.36.328.452.716.629-.173.168-.433-.087zm3.587 2.105c.136-1.102.123.642 0 0zm-3.997-3.122c.15-.064.077.2 0 0zm.934.557c.242-.506.442.565 0 0zm2.638 1.471c0-.196.05.279 0 0zm-.15-.342c-.364-.902.343.479 0 0zm-.228-.592c-.06-.374.215.469 0 0zm.37-.597c-.25-.442.319-1.95.377-1.016-.264.73-.072 1.14.11.16.342-.77-.073 1.522-.488.856zm.373-2.243c.11-.136.027.16 0 0zm-.624 12.383c-.15-.133.019.082 0 0zm1.294.652c.716.187.716-.11.064-.197-.35-.328-1.453-.674-.464-.04.063.164.273.159.396.236h.004zM8.175 20.27c.396.296 1.49.838.56.109.315-.36-.596-.556-.296-.797-.766-.474-.607-.429-.064-.415-.93-.415.132-.383.082-.597-.36-.068-1.773-.629-.939.046-.848-.429-.204.164-.46.1-.866-.237.77.661-.136.438.497.392 1.34 1.007.21.415-.151.214.806.538 1.043.701zm1.353.778c1.645.529-.807-.651 0 0zm6.927 4.198c.022-.328-.223.278 0 0zm.715.3c.378-.369.014.584.63-.09.004-.483-.019-.77-.707-.182-.191.105-.273.551.078.274v-.001zM5.86 18.443c-.114-.456-.816-.456 0 0zm.76.501c-.282-.469-1.007-.423 0 0zm4.33 2.612c.424.374 1.942.274.515.046-.214-.315-1.344-.238-.515-.046zm5.947 3.672c.652-.547-.629.242 0 0zm1.353.926c.005-.173-.278.078 0 0zm0-.241c.72-.766-.697.045 0 0zM3.991 16.879c-.615-.875-.383-1.271-.975-1.983-.11-.551-1.012-1.79-.465-.474.501.766.652 1.955 1.44 2.456v.001zm14.036 8.786c1.326-.852-.543-.37 0 0zm1.012.397c.665-.565-.419-.118 0 0zM5.636 17.476c.192-.283-.487-.037 0 0zm13.189 8.317c.642-.415-.146-.351-.114.036l.114-.036zm-8.714-5.496c-.023-.279-.342.023 0 0zm.538.31c-.173-.347-.264.055 0 0zm9.21 5.468c.821-.596-.501-.118-.173.11l.173-.11zm-.314-.155c.67-.56-.711.25 0 0zm1.608 1.071c.452-.3-.546-.095 0 0zm-15.102-9.72c.602.136 2.41 1.486 1.344.095-.547-.164-.219-1.5-.78-1.262.374.625.31.893-.474.497-.989-.479-.556.241-.365.437-.26.06.351.228.274.233zm-2.748-2.17c.105-.445-.999-2.455-.525-1.006.174.3.155.88.525 1.007zm5.04 3.113c-.31-.26-.014-.04 0 0zm.766.178c0-.474-.843-.192 0 0zm6.63 4.179c-.127-.324-.5-.009 0 0zm.32.233c-.046-.182-.183.031 0 0zm2.629 1.653c.25-.187-.314-.022 0 0zM4.675 15.453c.724-.283-.775-.2 0 0zm10.481 6.602c-.009-.468-.46.119 0 0zM4.388 14.787c.464-.16-.43-.105 0 0zm1.348.652c-.009-.155-.141.06 0 0zm16.438 10.08c.597-.117 1.96.306 2.18-.159-.725-.014-2.512-.51-2.594.119l.159.027.255.014zm-16.01-9.97c.01-.475-.369-.02 0 0zM2.62 13.086c-.16-.902-.61-.137 0 0zm.848.214c.009-.291-.774-.264 0 0zm.483.237c-.14-.114-.11.141 0 0zm3.035 1.946c.146-.127-.337-.095 0 0zm-3.359-2.479c-.082-.683-.98-.105 0 0zM1.895 11.88c-.023-.314-.17.118 0 0zm.254-.196c-.04-.373-.218.046 0 0zm1.427.853c.602-.238-1.098-.493-.123-.046l.123.046zM22.63 24.302c.388-.35-.487-.109 0 0zm2.306 1.195c.15-.456-.392.06 0 0zM3.722 11.788c.064-.442-.479.087 0 0zM1.694 10.43c-.11-.625-.09-1.718.948-1.349-1.39.278.962 1.727.665.584.584.027 1.144-.347.834.223 1.153-.128 1.95-1.126 3.062-.989.867-.114 1.814-.2 2.749-.547.765-.06 1.504-.884 1.085-1.372-1.049-.09-2.142.041-3.3.269-1.281.268-2.443.774-3.737.993-1.263.169.25.464-.11.533-.656.227.785.383-.086.62-.533-.101-1.094-.288-.866-.853-1.208.155-2.27.66-1.313 1.886l.07.002zm2.912-1.48c.283-1.044 1.518.856.465.136-.128-.09-.333-.169-.465-.136zm.055-.506c.406-.3.214.169 0 0zm.52.01c.036-.479 1.184.255.187.173l-.188-.173zm.705-.288c.26-.301.078.274 0 0zm.183-.118c.433-.52 2.448-.333.97-.05-.391-.297-.697.173-.97.05zM8.7 7.64c-.069-1.418 1.303.505 0 0zm.743-.005c.273-.715 1.056-.287.127-.146.019.078-.027.37-.127.146zm-6.016 3.787c.815-.501-.861-.433 0 0zm.601.17c.287-.306-.62-.129 0 0zM2.254 10.33c.465-.356-.547-.137 0 0zm24.04 15.04c.014-.416-.355.186 0 0zm-2.442-1.67c.068-.478-.314.041 0 0zm3.112 1.827c.652 0 1.969-.2.556-.2-.223.037-1.294.027-.556.2zM4.556 11.297c.528-.037.825-.579-.101-.547-1.436-.15 1.263.487-.182.305-.196.128.274.278.283.242zm.465.236c-.055-.342-.164.177 0 0zm.547-1.468c.233-.282-.314-.078 0 0zM3.818 7.14c.943-.32 2.229-.679 2.67.155-.451-.542-.182-1.075.246-.283.602.807.902-.364.51-.633.447.556.953.815.301.031.712-.852-1.426.114-1.914.105-.233.105-2.415.556-1.81.625h-.003zm.551-1.053c.538-.406 1.855.237 1.007-.406-.078-.069-1.85.487-1.007.406zm1.955.078c.629.018-.269-.839.479-.452-.124-.4-.871-.479-1.24-.638-.205.37.423 1.094.76 1.09zM4.716 4.392c.214-.292-.384.15 0 0zm.797.191c1.007-.132-.26-.433-.205-.008l.205.008zm-1.49-1.167c-.712-.93 1.335.16.615-.815-.611-.483-1.195.547-.615.815zm9.128 4.918c.328-.579-1.35-.78-.22-.205.106.037.079.246.22.205z" fill="#E9F1F7"/>
  </g>
  <defs>
    <clipPath id="cib:flask__clip0">
      <path fill="#fff" transform="translate(.719 .5)" d="M0 0h28v28H0z"/>
    </clipPath>
  </defs>
</svg>
