<svg width="29" height="28" fill="none" xmlns="http://www.w3.org/2000/svg">
  <path fill-rule="evenodd" clip-rule="evenodd" d="M14.312.5c-7.735 0-14 6.265-14 14 0 6.195 4.007 11.427 9.572 13.282.7.123.963-.297.963-.665 0-.332-.018-1.434-.018-2.607-3.517.647-4.427-.858-4.707-1.645-.158-.402-.84-1.645-1.435-1.977-.49-.263-1.19-.91-.018-.928 1.103-.018 1.89 1.015 2.153 1.435 1.26 2.117 3.272 1.523 4.077 1.155.123-.91.49-1.523.893-1.873-3.115-.35-6.37-1.557-6.37-6.912 0-1.523.542-2.783 1.435-3.763-.14-.35-.63-1.785.14-3.71 0 0 1.172-.367 3.85 1.436a12.99 12.99 0 013.5-.473c1.19 0 2.38.157 3.5.473 2.677-1.82 3.85-1.435 3.85-1.435.77 1.924.28 3.36.14 3.71.892.98 1.434 2.222 1.434 3.762 0 5.372-3.272 6.563-6.387 6.912.508.438.945 1.278.945 2.59 0 1.873-.018 3.378-.018 3.85 0 .368.263.805.963.665A14.023 14.023 0 0028.311 14.5c0-7.735-6.264-14-14-14z" fill="#E9F1F7"/>
</svg>
