<svg xmlns="http://www.w3.org/2000/svg" width="29" height="29" fill="none"><path fill="#E44F26" d="M5.883 24.3L3.917 2.25h21.604l-1.969 22.047-8.846 2.453-8.823-2.45z"/><path fill="#F1662A" d="M14.719 24.876l7.149-1.982 1.681-18.84h-8.83v20.822z"/><path fill="#EBEBEB" d="M14.719 12.231H11.14l-.247-2.769h3.826V6.757H7.938l.064.727.664 7.452h6.053V12.23zm0 7.024l-.012.003-3.012-.813-.193-2.156H8.787l.379 4.245 5.54 1.538.013-.003v-2.814z"/><path fill="#fff" d="M14.709 12.231v2.705h3.33l-.313 3.508-3.017.813v2.814l5.545-1.537.04-.457.635-7.12.067-.726h-6.287zm0-5.474v2.705h6.533l.054-.607.123-1.371.065-.727H14.71z"/></svg>