<svg width="29" height="29" fill="none" xmlns="http://www.w3.org/2000/svg">
  <g clip-path="url(#logos:javascript__clip0)">
    <path d="M.719.5h28v28h-28V.5z" fill="#F7DF1E"/>
    <path d="M8.081 23.899l2.143-1.297c.413.733.79 1.353 1.691 1.353.865 0 1.41-.338 1.41-1.654v-8.946h2.631v8.983c0 2.726-1.597 3.966-3.928 3.966-2.105 0-3.327-1.09-3.947-2.406m9.305-.281l2.142-1.24c.564.92 1.297 1.597 2.594 1.597 1.09 0 1.786-.545 1.786-1.297 0-.902-.715-1.222-1.918-1.748l-.657-.282c-1.899-.808-3.158-1.823-3.158-3.966 0-1.973 1.504-3.477 3.853-3.477 1.673 0 2.876.583 3.74 2.105l-2.048 1.316c-.451-.808-.94-1.128-1.692-1.128-.77 0-1.26.49-1.26 1.128 0 .79.49 1.11 1.617 1.598l.658.282c2.237.958 3.496 1.936 3.496 4.134 0 2.369-1.86 3.666-4.36 3.666-2.444 0-4.023-1.166-4.793-2.688" fill="#000"/>
  </g>
  <defs>
    <clipPath id="logos:javascript__clip0">
      <path fill="#fff" transform="translate(.719 .5)" d="M0 0h28v28H0z"/>
    </clipPath>
  </defs>
</svg>
