<svg xmlns="http://www.w3.org/2000/svg" width="27" height="27" fill="none"><path fill="#E9F1F7" fill-rule="evenodd" d="M.479 2.81A2.144 2.144 0 012.623.668h21.375a2.143 2.143 0 012.147 2.144v21.375A2.144 2.144 0 0124 26.333H2.623a2.143 2.143 0 01-2.144-2.145V2.81zm10.159 7.643h3.475v1.745c.502-1.004 1.785-1.907 3.714-1.907 3.697 0 4.573 1.999 4.573 5.666v6.792h-3.74v-5.957c0-2.088-.502-3.267-1.776-3.267-1.767 0-2.502 1.271-2.502 3.267v5.957h-3.743V10.453zM4.22 22.588h3.743V10.292H4.22v12.296zM8.5 6.281a2.407 2.407 0 11-4.812.105A2.407 2.407 0 018.5 6.281z" clip-rule="evenodd"/></svg>