<svg xmlns="http://www.w3.org/2000/svg" width="48" height="29" fill="none"><g clip-path="url(#logos:nextjs__clip0)"><path fill="#E9F1F7" d="M11.669 7.8h8.75v.696h-7.948v5.234h7.474v.696h-7.474v5.747h8.04v.695h-8.842V7.8zm9.534 0h.93l4.12 5.747L30.464 7.8 36.192.5l-9.41 13.651 4.849 6.717h-.966l-4.412-6.113-4.43 6.113h-.948l4.886-6.717L21.203 7.8zm10.774.696V7.8h9.972v.695h-4.594v12.373h-.802V8.496h-4.576zM.722 7.8h1.002L15.55 28.49l-5.713-7.622L1.56 8.788l-.036 12.08H.722V7.8zm41.146 12.163a.283.283 0 01-.286-.291c0-.164.123-.291.286-.291.166 0 .287.127.287.29 0 .165-.12.292-.287.292zm.789-.766h.429c.006.232.175.389.425.389.28 0 .437-.168.437-.483V17.11h.437v1.995c0 .567-.328.893-.87.893-.51 0-.858-.317-.858-.801zm2.3-.025h.433c.037.267.298.437.675.437.351 0 .609-.182.609-.432 0-.215-.164-.343-.537-.431l-.363-.088c-.509-.12-.741-.366-.741-.78 0-.502.41-.836 1.024-.836.572 0 .99.334 1.015.809h-.426c-.04-.26-.267-.422-.595-.422-.345 0-.575.166-.575.42 0 .201.148.317.515.402l.31.077c.578.134.816.369.816.793 0 .539-.418.877-1.085.877-.624 0-1.044-.323-1.075-.826z"/></g><defs><clipPath id="logos:nextjs__clip0"><path fill="#fff" d="M0 0h46.4v28H0z" transform="translate(.719 .5)"/></clipPath></defs></svg>