<svg xmlns="http://www.w3.org/2000/svg" width="29" height="29" fill="none"><path fill="#0C0824" d="M3.49 3.971h22.458v21.845H3.49V3.971z"/><path fill="#31C5F0" d="M3.49 3.971h22.458v21.846H3.49V3.97zM2.469 26.838h24.5V2.95h-24.5v23.888zM18.986 12.75c-.807 0-1.082.409-1.082.746 0 .367.183.623 1.266 1.184 1.603.776 2.1 1.52 2.1 2.613 0 1.634-1.245 2.511-2.93 2.511a4.441 4.441 0 01-2.093-.437c-.071-.03-.081-.081-.081-.164v-1.502c0-.102.05-.133.122-.081a3.79 3.79 0 002.052.602c.807 0 1.144-.337 1.144-.797 0-.367-.235-.694-1.266-1.225-1.45-.694-2.052-1.4-2.052-2.572 0-1.317 1.03-2.41 2.817-2.41a4.694 4.694 0 011.828.287.226.226 0 01.102.204v1.4c0 .081-.05.133-.153.102a3.45 3.45 0 00-1.777-.46h.003zm-8.78 1.215c.235.02.419.02.827.02 1.195 0 2.317-.418 2.317-2.042 0-1.296-.806-1.95-2.164-1.95a17 17 0 00-.98.032v3.94zM8.39 8.54c0-.072.143-.123.225-.123a61.057 61.057 0 012.634-.05c2.828 0 3.93 1.55 3.93 3.532 0 2.592-1.879 3.705-4.185 3.705-.388 0-.52-.02-.796-.02v3.92c0 .082-.03.123-.123.123H8.512c-.081 0-.122-.03-.122-.123V8.544l-.001-.004z"/></svg>