<svg xmlns="http://www.w3.org/2000/svg" width="33" height="29" fill="none"><g clip-path="url(#logos:react__clip0)"><path fill="#00D8FF" d="M26.567 9.566a21.05 21.05 0 00-1.011-.319c.057-.233.11-.464.156-.69.766-3.719.265-6.715-1.445-7.701-1.64-.946-4.323.04-7.032 2.398-.267.233-.528.472-.782.718a19.639 19.639 0 00-.521-.481C13.092.97 10.247-.092 8.538.897c-1.638.949-2.124 3.765-1.434 7.29a21 21 0 00.232 1.04c-.402.115-.791.237-1.163.367-3.329 1.16-5.454 2.979-5.454 4.865 0 1.948 2.282 3.903 5.749 5.088.28.095.564.184.85.266a20.56 20.56 0 00-.247 1.122c-.658 3.463-.144 6.213 1.49 7.155 1.688.974 4.52-.027 7.279-2.438.224-.196.442-.398.656-.605.276.267.56.525.85.776 2.672 2.299 5.31 3.227 6.943 2.282 1.687-.976 2.235-3.93 1.523-7.524a17.875 17.875 0 00-.188-.84c.199-.06.394-.12.584-.183 3.604-1.194 5.95-3.124 5.95-5.099 0-1.893-2.195-3.724-5.59-4.893zm-.781 8.717c-.172.057-.348.112-.528.166a31.514 31.514 0 00-1.592-3.983 31.504 31.504 0 001.53-3.925c.321.093.634.191.934.295 2.91 1.002 4.684 2.482 4.684 3.623 0 1.216-1.916 2.793-5.028 3.824zm-1.291 2.559c.314 1.59.36 3.026.15 4.15-.186 1.009-.563 1.681-1.029 1.951-.99.573-3.11-.172-5.394-2.138a19.25 19.25 0 01-.79-.721 31.519 31.519 0 002.635-3.346 31.34 31.34 0 004.258-.657c.064.26.12.513.17.761zm-13.058 6.002c-.968.342-1.74.351-2.205.083-.992-.572-1.404-2.78-.842-5.742.067-.35.144-.698.23-1.043 1.288.285 2.713.49 4.236.613a32.69 32.69 0 002.7 3.334c-.196.189-.396.373-.6.552-1.22 1.066-2.442 1.823-3.52 2.203zm-4.535-8.568c-1.533-.524-2.799-1.205-3.667-1.948-.78-.668-1.173-1.33-1.173-1.869 0-1.145 1.707-2.605 4.553-3.597.346-.12.707-.234 1.082-.34a32.3 32.3 0 001.533 3.97 32.712 32.712 0 00-1.552 4.027 17.43 17.43 0 01-.776-.243zm1.52-10.348c-.59-3.02-.198-5.297.79-5.869 1.05-.609 3.377.26 5.828 2.436.16.143.317.288.472.436a32.202 32.202 0 00-2.678 3.314 32.812 32.812 0 00-4.196.652 19.93 19.93 0 01-.216-.969zm13.561 3.349a42.706 42.706 0 00-.956-1.572 29.72 29.72 0 012.867.5 28.44 28.44 0 01-1.006 2.708 46.816 46.816 0 00-.905-1.636zm-5.53-5.387c.62.672 1.24 1.42 1.85 2.234a39.549 39.549 0 00-3.716 0 29.612 29.612 0 011.866-2.234zm-5.566 5.396A39.697 39.697 0 0010 12.912a29.639 29.639 0 01-1-2.72 30.409 30.409 0 012.85-.49c-.333.52-.655 1.049-.964 1.584zm.993 8.026c-1.03-.115-2-.27-2.898-.466.278-.896.62-1.828 1.02-2.775a39.493 39.493 0 001.878 3.24zm4.61 3.81a30.113 30.113 0 01-1.89-2.262 46.98 46.98 0 001.839.035c.64 0 1.274-.014 1.898-.042a28.564 28.564 0 01-1.846 2.27zm6.41-7.1c.42.958.775 1.885 1.056 2.766a28.6 28.6 0 01-2.933.5 45.573 45.573 0 001.878-3.266zm-2.075.995a44.155 44.155 0 01-1.508 2.434 43.64 43.64 0 01-5.725.01 37.783 37.783 0 01-2.878-4.97 37.74 37.74 0 012.862-4.961 37.817 37.817 0 015.73 0 40.437 40.437 0 011.515 2.42c.479.826.93 1.667 1.355 2.522-.42.864-.87 1.713-1.35 2.545zm2.77-14.998c1.054.607 1.463 3.056.802 6.267-.043.205-.09.413-.142.625a32.15 32.15 0 00-4.203-.664 31.536 31.536 0 00-2.658-3.317c.236-.227.477-.448.723-.663 2.321-2.02 4.49-2.818 5.479-2.248zm-7.157 9.633a2.807 2.807 0 110 5.615 2.807 2.807 0 010-5.615z"/></g><defs><clipPath id="logos:react__clip0"><path fill="#fff" d="M0 0h31.44v28H0z" transform="translate(.719 .5)"/></clipPath></defs></svg>