<svg width="29" height="29" fill="none" xmlns="http://www.w3.org/2000/svg">
  <path d="M23.565 15.875a5.077 5.077 0 00-2.22.515 4.68 4.68 0 01-.497-1.15 3.092 3.092 0 01-.045-.962c.075-.354.172-.702.29-1.043-.003-.045-.052-.256-.545-.263-.493-.007-.917.094-.963.224a5.415 5.415 0 00-.205.73 17.224 17.224 0 01-1.5 2.882A2.787 2.787 0 0117.497 15a8.59 8.59 0 01.29-1.043c-.004-.044-.053-.255-.546-.262-.492-.007-.917.094-.962.224-.046.13-.103.437-.206.73-.102.292-1.297 2.962-1.61 3.651a24.002 24.002 0 01-.416.864l-.134.255v.005c-.068.12-.14.232-.175.232-.063-.25-.06-.512.009-.76.175-.927.603-2.367.599-2.417 0-.027.08-.277-.277-.407a.444.444 0 00-.506.088c-.032 0-.053.076-.053.076s.389-1.62-.743-1.62A3.373 3.373 0 0010.6 16.09c-.304.165-.953.519-1.647.9-.262.147-.537.295-.792.437-.017-.018-.035-.04-.053-.058C6.73 15.9 4.197 14.864 4.306 12.9c.04-.716.286-2.596 4.864-4.879 3.768-1.856 6.767-1.342 7.286-.2.742 1.628-1.607 4.653-5.5 5.092a2.932 2.932 0 01-2.461-.622c-.206-.224-.237-.238-.313-.193-.126.067-.045.269 0 .385a2.298 2.298 0 001.405 1.105 7.482 7.482 0 004.565-.452c2.362-.913 4.2-3.45 3.66-5.576-.541-2.157-4.12-2.868-7.509-1.662a17.063 17.063 0 00-5.77 3.31c-1.867 1.746-2.161 3.262-2.04 3.898.437 2.256 3.544 3.723 4.787 4.813a7.723 7.723 0 01-.17.093c-.622.31-2.993 1.549-3.587 2.86-.671 1.487.108 2.55.622 2.694a3.827 3.827 0 004.121-1.67 4.134 4.134 0 00.37-3.809.095.095 0 00-.017-.027l.487-.286c.297-.175.596-.344.9-.506a5.899 5.899 0 00-.318 1.63 3.4 3.4 0 00.73 2.362.805.805 0 00.59.193c.526 0 .766-.438 1.03-.958.322-.635.612-1.373.612-1.373s-.362 1.996.622 1.996c.358 0 .72-.466.882-.7v.004l.027-.045.058-.093v-.01c.144-.25.466-.818.944-1.762.618-1.217 1.213-2.739 1.213-2.739.057.335.137.665.237.989.144.393.315.775.51 1.145-.143.201-.233.313-.233.313l.005.005c-.116.152-.242.317-.38.478-.415.456-.799.937-1.15 1.442a.391.391 0 00.107.525.98.98 0 00.6.098 2.75 2.75 0 00.899-.205c.277-.098.537-.235.774-.407a1.732 1.732 0 00.743-1.526 3.08 3.08 0 00-.281-1.079 20.495 20.495 0 001.472-2.506c.057.335.136.665.236.989.12.34.266.669.438.984a4.254 4.254 0 00-1.31 1.682c-.282.815-.063 1.181.35 1.266.226.016.452-.03.654-.134.296-.097.575-.24.827-.425a1.86 1.86 0 00.913-1.513 2.86 2.86 0 00-.206-.895 4.687 4.687 0 012.377-.273c2.13.25 2.55 1.58 2.47 2.14a1.415 1.415 0 01-.675.957c-.148.093-.197.125-.184.192.017.099.087.094.214.076a1.662 1.662 0 001.166-1.479c.067-1.312-1.186-2.751-3.402-2.738l-.002.001zM7.132 21.412c-.707.77-1.691 1.06-2.116.815-.457-.262-.278-1.4.59-2.215a11.27 11.27 0 011.663-1.24l.437-.263.05-.027.107-.067a3.056 3.056 0 01-.73 2.997zm5.146-3.5c-.246.6-.76 2.135-1.073 2.05-.269-.072-.438-1.236-.054-2.386a5.417 5.417 0 01.837-1.534c.385-.43.81-.573.912-.398a7.93 7.93 0 01-.622 2.268zm4.247 2.032c-.104.054-.202.088-.246.063-.032-.017.044-.087.044-.087s.533-.573.743-.832c.121-.153.263-.331.417-.533v.057c0 .685-.663 1.146-.957 1.334l-.001-.002zm3.276-.747c-.076-.053-.063-.233.192-.792.178-.359.426-.679.73-.94.047.133.07.272.072.412a1.353 1.353 0 01-.994 1.32z" fill="#CD6799"/>
</svg>
