<svg xmlns="http://www.w3.org/2000/svg" width="29" height="29" fill="none"><path fill="#FFCEBF" d="M16.513 26.4c.036-.083.13-.14.197-.21 1.028-1.079 2.065-2.147 3.079-3.238a2.8 2.8 0 00.887-2.327 5.18 5.18 0 00-.125-.546c-.277.263-.534.502-.793.742-.402.375-.803.75-1.21 1.121a1.69 1.69 0 01-1.879.367 1.726 1.726 0 01-1.128-1.532.914.914 0 00-.038-.127c-.309.262-.605.504-.898.752l-6.092 5.163c-.042.035-.088.08-.127.115h8.122l-.012-.008c-.044-.03-.02-.191.017-.272zm-8.499 0c.072-.094.16-.175.258-.241l8.431-7.153c.576-.489 1.148-.98 1.718-1.473a.457.457 0 00.16-.196 4.695 4.695 0 00.056-1.81c-.087.06-.135.087-.175.13-.69.618-1.377 1.24-2.071 1.855a1.542 1.542 0 01-1.792.288 1.653 1.653 0 01-.945-1.581v-.284c-.127.093-.22.155-.306.225a22736.39 22736.39 0 01-10.122 8.1c-.152.121-.334.393-.534.13-.2-.264.104-.373.257-.495 3.597-2.886 7.194-5.769 10.794-8.65.586-.47.625-.666.243-1.412l-.227.213c-.624.58-1.255 1.152-1.869 1.742a1.855 1.855 0 01-3.137-1.17c-.116.088-.217.152-.312.226l-5.338 4.137a1.3 1.3 0 01-.311.226.39.39 0 01-.263-.013v7.49h5.474a.32.32 0 01.01-.284z"/><path fill="#FF6196" d="M22.802 2.62c-.15.487-.294.976-.424 1.468a1.477 1.477 0 00.788 1.829 6.232 6.232 0 003.34.7V2.703a.638.638 0 01.014-.257.581.581 0 01.092-.13h-3.814c.059.068.039.188.004.304z"/><path fill="#FF87AF" d="M15.14 11.028c-.017.437-.17.857-.437 1.204a19.832 19.832 0 01-3.26 3.318 1.261 1.261 0 01-1.473.175 1.219 1.219 0 01-.738-1.197c.028-.309.156-.6.365-.829a31.366 31.366 0 014.391-3.493.62.62 0 01.726-.03.91.91 0 01.427.852zm-1.048 5.303a1.258 1.258 0 01.392-1.05 33.55 33.55 0 014.261-3.336c.046-.03.088-.058.137-.088a.732.732 0 011.142.425.754.754 0 01-.033.463 3.842 3.842 0 01-1.022 1.67 104.11 104.11 0 01-2.975 2.817.983.983 0 01-1.193.168 1.322 1.322 0 01-.71-1.069zm6.314.579c-.245.262-.497.513-.732.781-.071.104-.13.216-.175.333.13.038.28.14.386.104.534-.18 1.056-.395 1.643-.621-.128.294-.224.565-.36.813a10.663 10.663 0 01-2.074 2.513c-.31.3-.633.586-.967.859a1.298 1.298 0 01-2.113-.805.962.962 0 01.208-.712 19.418 19.418 0 014.045-3.345.17.17 0 01.057-.011l.082.09z"/><path fill="#FF6196" d="M22.413 13.424l1.497-6.65 1.05.246-.541 1.646c-.506 1.531-1.018 3.063-1.512 4.596-.096.283-.222.336-.494.162zm-1.69 3.912c.158-.605.316-1.164.449-1.73a3.91 3.91 0 01.722-1.505c.213-.28.452-.168.696-.108.226.056.282.22.292.438a2.49 2.49 0 01-.514 1.668 4.2 4.2 0 01-1.645 1.237z"/><path fill="#000" d="M26.962 3.032c.013-.195.008-.39-.015-.584a.255.255 0 00-.101-.132.334.334 0 00-.133-.066c-.028-.005-.068.024-.105.065a.581.581 0 00-.092.13.638.638 0 00-.014.258v3.913a6.232 6.232 0 01-3.34-.7 1.477 1.477 0 01-.788-1.83c.13-.492.274-.98.423-1.468.035-.116.055-.236 0-.304a.175.175 0 00-.118-.056.262.262 0 00-.16.056.38.38 0 00-.149.166 21.538 21.538 0 00-.463 1.591c-.05.211-.064.43-.04.645a2.047 2.047 0 001.35 1.75c.165.069.262.137.215.355l-.189.83c-.428 1.88-.855 3.76-1.279 5.642a.422.422 0 01-.106.225c-.28.222-.514.495-.692.804a4.201 4.201 0 00-.464 1.313.86.86 0 01-.488.687c-.365.184-.7.423-1.105.672a11.06 11.06 0 00-.016-1.462.93.93 0 01.249-.84 4.157 4.157 0 001.1-1.92 1.13 1.13 0 00-1.056-1.488 1.487 1.487 0 00-.813.231 60.273 60.273 0 00-2.46 1.773c-.48.36-.93.76-1.394 1.138a.37.37 0 01-.051-.071.739.739 0 00-.052-.187c-.388-.599-.12-1.034.302-1.48a2.45 2.45 0 00.675-1.708 1.372 1.372 0 00-.286-.898 1.276 1.276 0 00-.383-.317 1.17 1.17 0 00-1.327.141l-.245.175c-.557.4-1.121.788-1.658 1.215a56.125 56.125 0 00-2.297 1.937c-.35.309-.606.73-.97 1.018-1.893 1.495-3.806 2.963-5.713 4.441a.895.895 0 00-.18.141.145.145 0 00-.013.026c-.04.093-.075.248-.027.305a.124.124 0 00.04.029.39.39 0 00.263.013 1.3 1.3 0 00.312-.226l5.337-4.137c.096-.074.196-.142.313-.226a1.856 1.856 0 003.136 1.17c.613-.59 1.246-1.162 1.87-1.742l.227-.213c.381.746.343.943-.243 1.413a14084.35 14084.35 0 00-10.8 8.65c-.153.122-.456.234-.258.494.199.261.382-.008.534-.13 3.375-2.695 6.748-5.394 10.119-8.096.087-.07.179-.133.306-.225v.283a1.653 1.653 0 00.945 1.581 1.542 1.542 0 001.792-.287c.694-.613 1.38-1.238 2.071-1.856.044-.039.095-.069.175-.13.099.602.08 1.216-.057 1.81a.457.457 0 01-.16.197c-.57.492-1.142.983-1.717 1.472l-8.428 7.154a1.085 1.085 0 00-.258.242.32.32 0 00-.01.28.329.329 0 00.28.056.257.257 0 00.101-.057c.044-.035.088-.08.127-.116l6.093-5.162c.293-.249.589-.494.897-.753a.916.916 0 01.038.128 1.726 1.726 0 001.129 1.531 1.69 1.69 0 001.88-.366c.405-.37.806-.747 1.209-1.121.262-.24.516-.482.792-.742a4.9 4.9 0 01.125.546 2.8 2.8 0 01-.887 2.318c-1.014 1.092-2.05 2.16-3.079 3.237-.067.07-.16.128-.197.211-.037.083-.06.246-.017.28l.013.009c.091.044.195.06.295.044a.12.12 0 00.071-.044c.025-.026.049-.057.072-.08.833-.862 1.67-1.718 2.497-2.586.334-.338.648-.695.94-1.07a2.985 2.985 0 00.534-3.164.452.452 0 01.065-.337c.056-.098.12-.194.184-.288.207-.27.38-.563.514-.875a6.6 6.6 0 011.172-2.1 2.444 2.444 0 00.437-2.16.866.866 0 010-.428c.443-1.372.899-2.738 1.35-4.106l.604-1.832.186-.566c.398 0 .772-.008 1.145 0 .31.008.404-.137.4-.438-.018-1.207-.01-2.414-.01-3.62zM11.442 15.55a1.262 1.262 0 01-1.473.175 1.219 1.219 0 01-.738-1.197c.028-.309.156-.6.365-.829a31.373 31.373 0 014.392-3.493.747.747 0 01.285-.123.574.574 0 01.208 0 .669.669 0 01.232.093.91.91 0 01.427.853 2.11 2.11 0 01-.438 1.204 19.838 19.838 0 01-3.26 3.317zm4.55 1.688a.984.984 0 01-1.193.168 1.323 1.323 0 01-.709-1.071 1.257 1.257 0 01.392-1.05 33.55 33.55 0 014.261-3.336c.046-.03.088-.058.138-.088a.732.732 0 011.14.425.754.754 0 01-.032.462 3.842 3.842 0 01-1.022 1.67 99.478 99.478 0 01-2.973 2.817l-.002.003zm5.172 1.086a10.669 10.669 0 01-2.07 2.51c-.311.299-.633.585-.968.858a1.3 1.3 0 01-2.113-.805.96.96 0 01.208-.712 19.408 19.408 0 014.046-3.345.168.168 0 01.056-.011l.088.087c-.245.263-.497.513-.732.782a1.66 1.66 0 00-.175.332c.13.039.28.14.386.104.422-.141.838-.306 1.283-.48l.36-.14c-.135.297-.231.568-.367.816l-.002.004zm1.202-2.218a3.819 3.819 0 01-1.202 1.008c-.144.08-.292.155-.443.226.155-.596.311-1.148.443-1.707l.006-.022a3.91 3.91 0 01.722-1.506c.213-.28.452-.168.696-.108.226.055.283.22.292.438a2.49 2.49 0 01-.512 1.667l-.002.004zm2.047-7.438c-.506 1.532-1.017 3.063-1.51 4.596-.094.288-.22.34-.492.167l1.298-5.769.2-.885 1.05.245-.212.64-.334 1.006z"/></svg>