<svg xmlns="http://www.w3.org/2000/svg" width="27" height="23" fill="none"><path fill="#E9F1F7" d="M26.895 3.26c-.974.432-2.021.723-3.121.855a5.448 5.448 0 002.39-3.008 10.85 10.85 0 01-3.452 1.319 5.436 5.436 0 00-9.26 4.958 15.434 15.434 0 01-11.203-5.68 5.432 5.432 0 00-.735 2.733A5.437 5.437 0 003.93 8.961a5.422 5.422 0 01-2.462-.68v.07a5.437 5.437 0 004.36 5.33c-.8.216-1.64.248-2.454.093a5.438 5.438 0 005.077 3.773 10.906 10.906 0 01-6.75 2.328c-.434 0-.867-.026-1.298-.076a15.371 15.371 0 008.33 2.442c9.999 0 15.464-8.281 15.464-15.463 0-.234-.005-.47-.016-.703a11.048 11.048 0 002.71-2.812l.003-.003z"/></svg>