<svg xmlns="http://www.w3.org/2000/svg" width="28" height="29" fill="none"><path fill="#0065A9" d="M25.384 5.295l-5.045-2.429a1.524 1.524 0 00-1.74.296L2.082 18.219a1.02 1.02 0 00-.003 1.508l1.348 1.225a1.02 1.02 0 001.303.058L24.625 5.925a1.013 1.013 0 011.625.807v-.059a1.529 1.529 0 00-.866-1.378z"/><path fill="#007ACC" d="M25.384 24.493l-5.045 2.43a1.527 1.527 0 01-1.74-.296L2.082 11.569a1.02 1.02 0 01-.003-1.509l1.348-1.225a1.02 1.02 0 011.306-.057l19.89 15.085a1.013 1.013 0 001.626-.807v.063a1.53 1.53 0 01-.866 1.374z"/><path fill="#1F9CF0" d="M20.339 26.923a1.527 1.527 0 01-1.74-.296.897.897 0 001.526-.634V3.796a.896.896 0 00-1.53-.634 1.526 1.526 0 011.74-.297l5.044 2.426a1.53 1.53 0 01.871 1.378v16.45a1.53 1.53 0 01-.867 1.38l-5.044 2.424z"/></svg>